# xmcd
# Track frame offsets:
# 182
# 12400
# 22882
# 32192
# 40735
# 50997
# 60547
# 71887
# 85140
# 95032
# 107820
# 121617
# 133075
# 145020
# 159972
# 170240
# 180830
# 193277
# 202430
# 219027
# 231025
# 243605
# 255975
# 267872
# 283707
#
# Disc length: 3903 seconds
# Revision: 3
# Processed by: cddbd v1.5.1PL2 Copyright (c) Steve Scherf et al.
# Submitted via: VisiTrax 2.10.0.248 - For more info visit www.synapsa.com
#
DISCID=6d0f3d19
DTITLE=Various Artist - Nashville Classics - Duets
DYEAR=1996
DGENRE=Country
TTITLE0=Don Gibson and Dottie West - Rings Of Gold
TTITLE1=Jim Reeves and Deborah Allen - Don't Let Me Cross Over
TTITLE2=Liz and Lynn Anderson - Mother May I
TTITLE3=Bobby Bare and Skeeter Davis - A Dear John Letter
TTITLE4=The Browns - Looking Back To See
TTITLE5=Hank Snow and Anita Carter - If It's Wrong To Love You
TTITLE6=Jim Reeves and Ginny Wright - I Love You
TTITLE7=Waylon Jennings and Jessi Colter - Under Your Spell Again
TTITLE8=Porter Wagoner and Dolly Parton - Making Plans
TTITLE9=Lester Flatt and Mac Wiseman - When My Blue Moon
TTITLE10=Jim Ed Brown and Helen Cornelius - I Don't Want To Have
TTITLE11=Jim Reeves and Dottie West - Love Is No Excuse
TTITLE12=Porter Wagoner and Skeeter Davis - Gonna Find Me A Bluebird
TTITLE13=Connie Smith and Nat Stuckey - Let It Be Me
TTITLE14=Hank Snow and Anita Carter - Promised To John
TTITLE15=Justin Tubb and Lorene Mann - Hurry Mister Peters
TTITLE16=Porter Wagoner and Dolly Parton - Jeanie's Afraid Of The Dark
TTITLE17=Dottie West and Jimmy Dean - Slowly
TTITLE18=Skeeter Davis and George Hamilton IV - Let's Get Together
TTITLE19=Waylon Jennings and Anita Carter - I Got You
TTITLE20=Lester Flatt and Mac Wiseman - Bluebirds Singing For Me
TTITLE21=Hank Snow and Kelly Foxton - Things
TTITLE22=Gary Stewart and Dean Dillon - Brotherly Love
TTITLE23=Lorrie Morgan and Keith Whitley - Til A Tear Becomes A Rose
TTITLE24=Clint Black and Roy Rogers - Hold On Partner
EXTD=
EXTT0=
EXTT1=
EXTT2=
EXTT3=
EXTT4=
EXTT5=
EXTT6=
EXTT7=
EXTT8=
EXTT9=
EXTT10=
EXTT11=
EXTT12=
EXTT13=
EXTT14=
EXTT15=
EXTT16=
EXTT17=
EXTT18=
EXTT19=
EXTT20=
EXTT21=
EXTT22=
EXTT23=
EXTT24=
PLAYORDER=
